<svg width="172" height="42" viewBox="0 0 172 42" fill="none" xmlns="http://www.w3.org/2000/svg">
<g clip-path="url(#clip0_592_2594)">
<path d="M25.9692 38.8567C25.2527 38.8567 24.5784 38.5747 24.0716 38.0634L15.4909 29.4073C14.9841 28.896 14.7045 28.2157 14.7045 27.4929C14.7045 26.7701 14.9841 26.0898 15.4909 25.5785L15.9257 25.1399C16.4325 24.6286 17.1069 24.3465 17.8234 24.3465C18.5399 24.3465 19.2143 24.6286 19.7211 25.1399L28.3018 33.796C29.3483 34.8517 29.3483 36.5701 28.3018 37.6258L27.8669 38.0645C27.3601 38.5757 26.6857 38.8578 25.9692 38.8578V38.8567Z" fill="#00E072"/>
<path d="M18.436 8.65615C19.4291 8.65615 20.2926 9.38 20.2926 10.4274L20.3276 23.0513L29.0727 31.8733C29.0727 30.9514 29.1159 6.93674 29.1159 6.93674C29.1262 3.10904 25.9795 0.0010376 22.0937 0.0010376H8.15815C7.68013 0.0010376 7.35426 0.0342228 6.89166 0.0922969L15.3644 8.65719H18.436V8.65615Z" fill="#041B63"/>
<path d="M13.5387 30.1187H11.3717C9.9181 30.1187 8.73899 28.9572 8.73899 27.525V11.2498C8.73899 9.84668 9.87081 8.70697 11.2833 8.66031L3.87965 1.2009C1.56358 2.60297 0 5.20801 0 8.05986V30.7513C0 35.195 3.65966 38.8111 8.15817 38.8111H20.8919C21.6085 38.8111 21.3247 38.8101 22.1266 38.8101L13.5377 30.1197L13.5387 30.1187Z" fill="#041B63"/>
<path d="M83.4187 5.9225C83.4187 6.88798 82.6559 7.65332 81.6989 7.64917C80.7418 7.64502 79.9492 6.86932 79.9492 5.87791C79.9492 4.8865 80.7202 4.15021 81.7061 4.15021C82.6919 4.15021 83.4197 4.92799 83.4187 5.9225ZM80.2062 14.6481C80.2062 13.6982 80.8066 13.0501 81.6619 13.0501C82.5614 13.0501 83.1617 13.6982 83.1617 14.6481V31.9708C83.1617 32.9207 82.5614 33.5689 81.6619 33.5689C80.7624 33.5689 80.2062 32.9207 80.2062 31.9708V14.6481Z" fill="#00E072"/>
<path d="M98.7914 13.049C99.6487 13.049 100.375 13.7407 100.375 14.5175C100.375 15.2942 99.6055 16.0295 98.7492 16.0295H95.2797C92.5391 16.1156 91.6838 17.023 91.7259 19.9173V26.6996C91.6838 29.5939 92.5391 30.5003 95.2797 30.5874H98.8345C99.6487 30.5874 100.375 31.3216 100.375 32.0994C100.375 33.0058 99.6908 33.5679 98.4922 33.5679H95.0227C90.8264 33.5679 88.7715 31.3216 88.7715 26.9153V19.7006C88.7715 15.2942 90.8264 13.048 95.0227 13.048H98.7914V13.049Z" fill="#00E072"/>
<path d="M146.285 12.7898H141.656C140.456 12.7898 139.585 13.6153 139.585 14.7539C139.585 15.8926 140.456 16.6766 141.656 16.6766H146.771C148.49 16.7087 149.257 17.2636 149.257 20.467V21.1307H144.879C143.367 21.1307 142.031 21.421 141.125 21.9427C139.289 22.9621 138.056 25.1005 138.056 27.2637C138.056 29.427 139.333 31.6307 141.153 32.6594C142.351 33.376 143.467 33.6062 145.748 33.6062H150.778C152.709 33.4942 153.068 32.5246 153.11 30.5159V19.7576C153.11 17.3465 152.544 15.6105 151.382 14.449C150.241 13.3104 148.569 12.7649 146.285 12.7898ZM149.257 25.0165V29.595H145.252C143.316 29.595 142.114 28.7176 142.114 27.3062C142.114 26.2402 142.537 25.0175 145.83 25.0175H149.258L149.257 25.0165Z" fill="#041B63"/>
<path d="M166.619 12.7898H162.684C159.606 12.7898 157.027 15.0474 157.027 19.0151V26.6705C156.984 29.0028 157.552 30.7751 158.715 31.9376C159.888 33.1095 161.673 33.6715 164.025 33.6062H168.147V34.3591C168.185 37.5044 167.715 38.0644 165.01 38.1018H160.298C159.05 38.1018 158.145 38.9283 158.145 40.0659C158.145 41.1081 159.074 41.9886 160.174 41.9886H165C165.094 41.9907 165.185 41.9907 165.276 41.9907C167.563 41.9907 169.216 41.4514 170.321 40.3469C171.473 39.1958 172.022 37.4381 171.999 34.9792V18.6667C171.999 14.3474 169.568 12.7908 166.619 12.7908V12.7898ZM168.146 18.8564V29.7194H164.049C162.924 29.7381 162.145 29.5058 161.645 29.0101C161.13 28.4988 160.879 27.6681 160.879 26.4714V19.9246C160.879 18.7268 161.13 17.8972 161.645 17.3859C162.126 16.9089 162.873 16.6755 163.927 16.6755C163.967 16.6755 164.008 16.6755 164.049 16.6755H165.985C167.179 16.6755 168.146 17.6514 168.146 18.8554V18.8564Z" fill="#041B63"/>
<path d="M72.2495 13.0718C71.35 13.0718 70.7497 13.72 70.7497 14.6699V26.5699C70.7497 29.4218 70.2398 30.6112 66.7621 30.6112H66.21C62.7323 30.6112 62.2225 29.4218 62.2225 26.5699V14.6699C62.2225 13.72 61.6221 13.0718 60.7226 13.0718C59.8231 13.0718 59.267 13.72 59.267 14.6699V26.4455C59.267 31.5912 61.4083 33.5907 66.1442 33.5907H66.8289C71.5649 33.5907 73.7062 31.5902 73.7062 26.4455V14.6699C73.7062 13.72 73.1058 13.0718 72.2505 13.0718H72.2495Z" fill="#00E072"/>
<path d="M46.0871 33.684C41.6646 33.7701 39.5614 31.6058 39.5182 27.0138V19.7805C39.5603 15.1034 41.6646 13.0242 46.2587 13.1113H49.0251C51.042 13.1538 54.0294 14.3993 54.0294 18.1647V40.3967C54.0294 41.2865 53.4537 41.9689 52.6251 41.9979C51.7966 42.027 51.0667 41.3114 51.0667 40.4455V33.683H46.086L46.0871 33.684ZM51.0677 19.0338C51.0677 17.4129 49.7652 16.1 48.1595 16.1H46.0449C43.5119 16.0565 42.4377 17.0966 42.4809 19.5647V27.1009C42.4809 29.7868 43.5109 30.7824 46.3019 30.6963H51.0667V19.0348L51.0677 19.0338Z" fill="#00E072"/>
<path d="M133.967 29.7142H132.289C129.861 29.68 129.233 29.2247 129.158 26.8603C129.156 26.7898 129.125 16.5864 129.125 16.5864H132.995C134.166 16.5864 135.016 15.8148 135.016 14.7519C135.016 13.6889 134.184 12.8759 132.995 12.8759H129.125V6.7729C129.125 5.61867 128.33 4.8129 127.191 4.8129C126.052 4.8129 125.298 5.63734 125.298 6.7729V25.3338C125.298 25.3338 125.298 25.3431 125.298 25.3483V26.5907C125.276 29.0505 125.824 30.8073 126.976 31.9584C128.081 33.0628 129.734 33.6021 132.021 33.6021C132.112 33.6021 132.204 33.6021 132.297 33.6H134.091C135.191 33.6 136.12 32.7196 136.12 31.6773C136.12 30.5397 135.214 29.7132 133.966 29.7132L133.967 29.7142Z" fill="#041B63"/>
<path d="M112.231 21.5776L118.526 12.5969C118.978 11.9508 118.838 11.059 118.209 10.5861C117.539 10.0821 116.588 10.2335 116.105 10.9231L107.409 23.3313V6.48355C107.409 5.53984 106.814 4.89688 105.92 4.89688C105.027 4.89688 104.475 5.53984 104.475 6.48355V31.92C104.475 32.8637 105.07 33.5067 105.92 33.5067C106.814 33.5067 107.409 32.8637 107.409 31.92V28.4584L110.5 24.0478L118.693 32.9446C119.33 33.6363 120.2 33.6985 120.854 33.0856C121.477 32.5018 121.479 31.6213 120.843 30.9307L112.23 21.5787L112.231 21.5776Z" fill="#00E072"/>
</g>
<defs>
<clipPath id="clip0_592_2594">
<rect width="172" height="42" fill="white"/>
</clipPath>
</defs>
</svg>
