<svg width="172" height="42" viewBox="0 0 172 42" fill="none" xmlns="http://www.w3.org/2000/svg">
<path d="M34.1186 26V15.8182H35.6548V24.6776H40.2685V26H34.1186ZM45.1883 26.1541C44.4723 26.1541 43.8476 25.9901 43.314 25.6619C42.7803 25.3338 42.366 24.8748 42.0711 24.2848C41.7761 23.6948 41.6286 23.0054 41.6286 22.2166C41.6286 21.4245 41.7761 20.7318 42.0711 20.1385C42.366 19.5452 42.7803 19.0845 43.314 18.7564C43.8476 18.4283 44.4723 18.2642 45.1883 18.2642C45.9042 18.2642 46.5289 18.4283 47.0625 18.7564C47.5962 19.0845 48.0105 19.5452 48.3054 20.1385C48.6004 20.7318 48.7479 21.4245 48.7479 22.2166C48.7479 23.0054 48.6004 23.6948 48.3054 24.2848C48.0105 24.8748 47.5962 25.3338 47.0625 25.6619C46.5289 25.9901 45.9042 26.1541 45.1883 26.1541ZM45.1932 24.9062C45.6572 24.9062 46.0417 24.7836 46.3466 24.5384C46.6516 24.2931 46.8769 23.9666 47.0228 23.5589C47.1719 23.1513 47.2465 22.7022 47.2465 22.2116C47.2465 21.7244 47.1719 21.277 47.0228 20.8693C46.8769 20.4583 46.6516 20.1286 46.3466 19.88C46.0417 19.6314 45.6572 19.5071 45.1932 19.5071C44.7259 19.5071 44.3381 19.6314 44.0299 19.88C43.7249 20.1286 43.4979 20.4583 43.3488 20.8693C43.2029 21.277 43.13 21.7244 43.13 22.2116C43.13 22.7022 43.2029 23.1513 43.3488 23.5589C43.4979 23.9666 43.7249 24.2931 44.0299 24.5384C44.3381 24.7836 44.7259 24.9062 45.1932 24.9062ZM53.6789 29.0227C53.0724 29.0227 52.5503 28.9432 52.1128 28.7841C51.6786 28.625 51.324 28.4145 51.0489 28.1527C50.7738 27.8909 50.5683 27.6042 50.4324 27.2926L51.7101 26.7656C51.7996 26.9115 51.9189 27.0656 52.0681 27.228C52.2206 27.3937 52.426 27.5346 52.6846 27.6506C52.9464 27.7666 53.2828 27.8246 53.6938 27.8246C54.2572 27.8246 54.7229 27.687 55.0908 27.4119C55.4587 27.1402 55.6427 26.706 55.6427 26.1094V24.608H55.5482C55.4587 24.7704 55.3295 24.951 55.1604 25.1499C54.9947 25.3487 54.766 25.5211 54.4743 25.6669C54.1827 25.8127 53.8032 25.8857 53.3358 25.8857C52.7326 25.8857 52.1891 25.7448 51.7052 25.4631C51.2246 25.178 50.8434 24.7588 50.5617 24.2053C50.2833 23.6484 50.1441 22.964 50.1441 22.152C50.1441 21.34 50.2816 20.6439 50.5567 20.0639C50.8351 19.4839 51.2163 19.0398 51.7002 18.7315C52.1841 18.42 52.7326 18.2642 53.3458 18.2642C53.8197 18.2642 54.2026 18.3438 54.4942 18.5028C54.7859 18.6586 55.0129 18.8409 55.1753 19.0497C55.3411 19.2585 55.4687 19.4425 55.5581 19.6016H55.6675V18.3636H57.1242V26.169C57.1242 26.8253 56.9717 27.3639 56.6668 27.7848C56.3619 28.2057 55.9492 28.5173 55.4289 28.7195C54.9118 28.9216 54.3285 29.0227 53.6789 29.0227ZM53.664 24.6527C54.0915 24.6527 54.4528 24.5533 54.7478 24.3544C55.0461 24.1522 55.2715 23.8639 55.4239 23.4893C55.5797 23.1115 55.6576 22.6591 55.6576 22.1321C55.6576 21.6184 55.5813 21.166 55.4289 20.7749C55.2764 20.3838 55.0527 20.0788 54.7577 19.8601C54.4627 19.638 54.0982 19.527 53.664 19.527C53.2165 19.527 52.8437 19.643 52.5454 19.875C52.2471 20.1037 52.0217 20.4152 51.8692 20.8097C51.7201 21.2041 51.6455 21.6449 51.6455 22.1321C51.6455 22.6326 51.7217 23.0717 51.8742 23.4496C52.0267 23.8274 52.252 24.1224 52.5503 24.3345C52.8519 24.5466 53.2232 24.6527 53.664 24.6527ZM62.4044 26.1541C61.6885 26.1541 61.0638 25.9901 60.5301 25.6619C59.9965 25.3338 59.5822 24.8748 59.2872 24.2848C58.9923 23.6948 58.8448 23.0054 58.8448 22.2166C58.8448 21.4245 58.9923 20.7318 59.2872 20.1385C59.5822 19.5452 59.9965 19.0845 60.5301 18.7564C61.0638 18.4283 61.6885 18.2642 62.4044 18.2642C63.1203 18.2642 63.7451 18.4283 64.2787 18.7564C64.8123 19.0845 65.2266 19.5452 65.5216 20.1385C65.8166 20.7318 65.9641 21.4245 65.9641 22.2166C65.9641 23.0054 65.8166 23.6948 65.5216 24.2848C65.2266 24.8748 64.8123 25.3338 64.2787 25.6619C63.7451 25.9901 63.1203 26.1541 62.4044 26.1541ZM62.4094 24.9062C62.8734 24.9062 63.2579 24.7836 63.5628 24.5384C63.8677 24.2931 64.0931 23.9666 64.2389 23.5589C64.3881 23.1513 64.4627 22.7022 64.4627 22.2116C64.4627 21.7244 64.3881 21.277 64.2389 20.8693C64.0931 20.4583 63.8677 20.1286 63.5628 19.88C63.2579 19.6314 62.8734 19.5071 62.4094 19.5071C61.9421 19.5071 61.5543 19.6314 61.246 19.88C60.9411 20.1286 60.7141 20.4583 60.5649 20.8693C60.4191 21.277 60.3462 21.7244 60.3462 22.2116C60.3462 22.7022 60.4191 23.1513 60.5649 23.5589C60.7141 23.9666 60.9411 24.2931 61.246 24.5384C61.5543 24.7836 61.9421 24.9062 62.4094 24.9062Z" fill="white"/>
<path d="M25.9692 38.8567C25.2527 38.8567 24.5784 38.5746 24.0716 38.0634L15.4909 29.4072C14.9841 28.896 14.7045 28.2157 14.7045 27.4929C14.7045 26.7701 14.9841 26.0898 15.4909 25.5785L15.9257 25.1398C16.4325 24.6286 17.1069 24.3465 17.8234 24.3465C18.5399 24.3465 19.2143 24.6286 19.7211 25.1398L28.3018 33.796C29.3483 34.8517 29.3483 36.5701 28.3018 37.6258L27.8669 38.0644C27.3601 38.5757 26.6857 38.8578 25.9692 38.8578V38.8567Z" fill="#00E072"/>
<path d="M18.436 8.65615C19.4291 8.65615 20.2926 9.38 20.2926 10.4274L20.3276 23.0513L29.0727 31.8733C29.0727 30.9514 29.1159 6.93674 29.1159 6.93674C29.1262 3.10904 25.9795 0.0010376 22.0937 0.0010376H8.15815C7.68013 0.0010376 7.35426 0.0342228 6.89166 0.0922969L15.3644 8.65719H18.436V8.65615Z" fill="#041B63"/>
<path d="M13.5387 30.1186H11.3717C9.9181 30.1186 8.73899 28.9572 8.73899 27.525V11.2498C8.73899 9.84665 9.87081 8.70694 11.2833 8.66027L3.87965 1.20087C1.56358 2.60294 0 5.20798 0 8.05983V30.7512C0 35.1949 3.65966 38.8111 8.15817 38.8111H20.8919C21.6085 38.8111 21.3247 38.8101 22.1266 38.8101L13.5377 30.1197L13.5387 30.1186Z" fill="#041B63"/>
</svg>
